<svg width="64" height="64" viewBox="0 0 119 127" fill="none" xmlns="http://www.w3.org/2000/svg">
<path d="M61.544 110.152C58.728 110.152 56.808 108.872 55.784 106.312L22.76 19.4C23.4427 19.0587 24.2533 18.8027 25.192 18.632C26.1307 18.376 26.984 18.248 27.752 18.248C30.1413 18.248 32.1467 18.8453 33.768 20.04C35.4747 21.1493 36.712 22.728 37.48 24.776L60.904 90.184L58.6 96.712L59.624 97.096L85.608 24.776C86.376 22.728 87.6133 21.1493 89.32 20.04C91.0267 18.8453 93.0747 18.248 95.464 18.248C96.9147 18.248 98.5787 18.632 100.456 19.4L67.432 106.312C67.0053 107.507 66.28 108.445 65.256 109.128C64.232 109.811 62.9947 110.152 61.544 110.152Z" fill="white"/>
<g style="mix-blend-mode:color-burn" filter="url(#filter0_d_0_1)">
<path d="M4 59.5C4 26.6391 30.6391 0 63.5 0H109.014C112.32 0 115 2.67994 115 5.98581V63.5C115 94.1518 90.1518 119 59.5 119V119C28.8482 119 4 94.1518 4 63.5V59.5Z" fill="url(#paint0_linear_0_1)"/>
</g>
<defs>
<filter id="filter0_d_0_1" x="0" y="0" width="119" height="127" filterUnits="userSpaceOnUse" color-interpolation-filters="sRGB">
<feFlood flood-opacity="0" result="BackgroundImageFix"/>
<feColorMatrix in="SourceAlpha" type="matrix" values="0 0 0 0 0 0 0 0 0 0 0 0 0 0 0 0 0 0 127 0" result="hardAlpha"/>
<feOffset dy="4"/>
<feGaussianBlur stdDeviation="2"/>
<feComposite in2="hardAlpha" operator="out"/>
<feColorMatrix type="matrix" values="0 0 0 0 0 0 0 0 0 0 0 0 0 0 0 0 0 0 0.25 0"/>
<feBlend mode="normal" in2="BackgroundImageFix" result="effect1_dropShadow_0_1"/>
<feBlend mode="normal" in="SourceGraphic" in2="effect1_dropShadow_0_1" result="shape"/>
</filter>
<linearGradient id="paint0_linear_0_1" x1="59.5" y1="0" x2="59.5" y2="119" gradientUnits="userSpaceOnUse">
<stop/>
<stop offset="0.9999"/>
<stop offset="1" stop-color="#666666"/>
</linearGradient>
</defs>
</svg>
